<?xml version="1.0" encoding="UTF-8" standalone="no"?>
<!DOCTYPE svg PUBLIC "-//W3C//DTD SVG 1.1//EN" "http://www.w3.org/Graphics/SVG/1.1/DTD/svg11.dtd">
<svg width="100%" height="100%" viewBox="0 0 1742 173" version="1.1" xmlns="http://www.w3.org/2000/svg" xmlns:xlink="http://www.w3.org/1999/xlink" xml:space="preserve" xmlns:serif="http://www.serif.com/" style="fill-rule:evenodd;clip-rule:evenodd;stroke-linejoin:round;stroke-miterlimit:2;">
    <g transform="matrix(1,0,0,1,-2231.52,-2706.04)">
        <g transform="matrix(1,0,0,1,2216.52,2876.04)">
            <g>
                <path d="M15,0L64.75,0L64.75,-97.25L164.5,-6.25C171.5,0.25 177.5,3 185.25,3C202.75,3 213.5,-9.25 213.5,-28.5L213.5,-167.25L164,-167.25L164,-69.75L63.75,-161.25C57,-167.5 51,-170 43.25,-170C25.75,-170 15,-158 15,-138.5L15,0Z" style="fill:white;fill-rule:nonzero;"/>
                <path d="M360.75,-170C277.75,-170 238.75,-142.25 238.75,-83.75C238.75,-25 278,2.75 360.75,2.75C443.75,2.75 483.25,-25.25 483.25,-83.75C483.25,-142.25 443.75,-170 360.75,-170ZM360.75,-126.5C417,-126.5 431.5,-117.75 431.5,-83.75C431.5,-49.75 416.75,-40.75 360.75,-40.75C305.25,-40.75 290.25,-49.75 290.25,-83.75C290.25,-117.5 305,-126.5 360.75,-126.5Z" style="fill:white;fill-rule:nonzero;"/>
                <path d="M621.25,0C679,0 722,-36.5 722,-85.25C722,-133.25 680.25,-167.25 621.25,-167.25L542.5,-167.25L509.25,-123.75L621.25,-123.75C651.5,-123.75 670.25,-109 670.25,-85.25C670.25,-58.25 653.25,-43.5 621.25,-43.5L561,-43.5L561,-103.25L509.25,-103.25L509.25,0L621.25,0Z" style="fill:white;fill-rule:nonzero;"/>
                <path d="M799.75,-123.75L908.25,-123.75L941.75,-167.25L748,-167.25L748,0L909,0L942,-43.5L799.75,-43.5L799.75,-65.25L902,-65.25L932,-102.25L799.75,-102.25L799.75,-123.75Z" style="fill:white;fill-rule:nonzero;"/>
                <g transform="matrix(1,0,0,1,940.75,0)">
                    <path d="M226,0L226,-102L121.75,-102L89.75,-65.75L174.25,-65.75L174.25,-43.5L111.25,-43.5C81.75,-43.5 62,-59.25 62,-83C62,-106.5 83.25,-123.75 111.25,-123.75L197.25,-123.75L230.75,-167.25L111.25,-167.25C52.25,-167.25 10.5,-133.25 10.5,-85.25C10.5,-36.5 53.5,0 111.25,0L226,0Z" style="fill:white;fill-rule:nonzero;"/>
                </g>
                <g transform="matrix(1,0,0,1,940.75,0)">
                    <path d="M482.25,-106.25C482.25,-144.5 450.5,-167.25 398,-167.25L289.5,-167.25L255,-123.75L403,-123.75C421.75,-123.75 430.5,-117.75 430.5,-104.25C430.5,-91.75 422.25,-86.25 403.25,-86.25L255,-86.25L255,0L306.5,0L306.5,-44.5L382.25,-44.5L424.25,0L492.5,0L442,-51.5C467.5,-61.25 482.25,-80.25 482.25,-106.25Z" style="fill:white;fill-rule:nonzero;"/>
                </g>
                <g transform="matrix(1,0,0,1,940.75,0)">
                    <rect x="512" y="-167.25" width="51.75" height="167.25" style="fill:white;fill-rule:nonzero;"/>
                </g>
                <g transform="matrix(1,0,0,1,940.75,0)">
                    <path d="M736.5,-43.25C785.5,-43.25 816.25,-67.25 816.25,-104.75C816.25,-142.75 785,-167.25 736.5,-167.25L630,-167.25L595.25,-123.75L742.25,-123.75C756,-123.75 764.75,-116.5 764.75,-105C764.75,-93.25 756.25,-86 742.25,-86L595.25,-86L595.25,0L646.75,0L646.75,-43.25L736.5,-43.25Z" style="fill:white;fill-rule:nonzero;"/>
                </g>
            </g>
        </g>
    </g>
</svg>
