<?xml version="1.0" encoding="UTF-8" standalone="no"?>
<!DOCTYPE svg PUBLIC "-//W3C//DTD SVG 1.1//EN" "http://www.w3.org/Graphics/SVG/1.1/DTD/svg11.dtd">
<svg width="100%" height="100%" viewBox="0 0 1559 1559" version="1.1" xmlns="http://www.w3.org/2000/svg" xmlns:xlink="http://www.w3.org/1999/xlink" xml:space="preserve" xmlns:serif="http://www.serif.com/" style="fill-rule:evenodd;clip-rule:evenodd;stroke-linejoin:round;stroke-miterlimit:2;">
    <g transform="matrix(1,0,0,1,-7.83052,-2176.04)">
        <g id="Artboard1" transform="matrix(0.687796,0,0,0.827638,-1681.75,2705.89)">
            <rect x="2456.51" y="-640.193" width="2266.37" height="1883.43" style="fill:white;fill-opacity:0;"/>
            <clipPath id="_clip1">
                <rect x="2456.51" y="-640.193" width="2266.37" height="1883.43"/>
            </clipPath>
            <g clip-path="url(#_clip1)">
                <g transform="matrix(11.4175,0,0,9.48808,2285.25,1093.78)">
                    <path d="M15,0L64.75,0L64.75,-97.25L164.5,-6.25C171.5,0.25 177.5,3 185.25,3C202.75,3 213.5,-9.25 213.5,-28.5L213.5,-167.25L164,-167.25L164,-69.75L63.75,-161.25C57,-167.5 51,-170 43.25,-170C25.75,-170 15,-158 15,-138.5L15,0Z" style="fill:url(#_Linear2);fill-rule:nonzero;"/>
                </g>
            </g>
        </g>
    </g>
    <defs>
        <linearGradient id="_Linear2" x1="0" y1="0" x2="1" y2="0" gradientUnits="userSpaceOnUse" gradientTransform="matrix(99.25,0,0,86.5,114.25,-83.5)"><stop offset="0" style="stop-color:black;stop-opacity:1"/><stop offset="1" style="stop-color:rgb(0,7,255);stop-opacity:1"/></linearGradient>
    </defs>
</svg>
